<?xml version="1.0" standalone="no"?>
<!DOCTYPE svg PUBLIC "-//W3C//DTD SVG 20010904//EN"
 "http://www.w3.org/TR/2001/REC-SVG-20010904/DTD/svg10.dtd">
<svg version="1.0" xmlns="http://www.w3.org/2000/svg"
 width="249.000000pt" height="249.000000pt" viewBox="0 0 249.000000 249.000000"
 preserveAspectRatio="xMidYMid meet">
<metadata>
Created by potrace 1.11, written by Peter Selinger 2001-2013
</metadata>
<g transform="translate(0.000000,249.000000) scale(0.100000,-0.100000)"
fill="#000000" stroke="none">
<path d="M1127 2204 c-1 -2 -30 -5 -63 -8 -32 -2 -59 -5 -59 -5 0 -1 -24 -4
-53 -6 -29 -3 -62 -10 -75 -16 -12 -7 -23 -11 -25 -10 -1 1 -15 0 -31 -4 -35
-7 -54 -43 -36 -68 20 -28 143 -61 222 -61 12 0 25 -6 28 -13 3 -9 0 -11 -7
-7 -8 5 -9 2 -5 -10 5 -12 3 -16 -5 -13 -17 5 -37 -22 -38 -50 0 -15 -5 -21
-14 -17 -8 3 -24 0 -36 -6 -21 -11 -21 -12 -4 -31 16 -18 16 -19 1 -13 -10 3
-17 1 -17 -5 0 -6 -5 -11 -10 -11 -20 0 -53 -39 -47 -54 3 -9 2 -18 -4 -21 -5
-4 -7 -11 -4 -16 4 -5 1 -9 -6 -9 -7 0 -9 -3 -6 -7 4 -3 2 -12 -4 -19 -6 -8
-9 -21 -5 -29 3 -8 2 -15 -3 -15 -5 0 -14 -13 -21 -30 -7 -16 -16 -30 -21 -30
-5 0 -8 -3 -7 -7 2 -5 -2 -21 -9 -38 -11 -30 -21 -59 -24 -73 -1 -4 -9 -13
-18 -20 -9 -8 -10 -11 -3 -7 6 3 12 1 12 -4 0 -6 -9 -11 -21 -11 -15 0 -19 5
-15 16 3 8 2 13 -3 10 -5 -3 -8 -17 -8 -31 0 -20 2 -23 13 -14 10 8 14 8 14 0
0 -6 -4 -11 -10 -11 -5 0 -13 0 -17 0 -12 0 -13 53 -1 67 7 9 7 13 -1 13 -6 0
-11 -5 -11 -11 0 -5 -5 -7 -10 -4 -6 4 -8 10 -6 14 3 4 -1 8 -9 8 -11 0 -12
-4 -4 -14 8 -9 8 -13 1 -13 -16 0 -42 41 -35 54 3 6 2 8 -2 3 -12 -11 -14 -47
-2 -40 6 3 7 1 3 -5 -4 -6 -13 -9 -21 -5 -10 3 -14 0 -12 -8 2 -8 2 -11 0 -6
-3 4 -10 4 -15 1 -6 -4 -8 -2 -5 3 4 6 0 16 -7 22 -9 8 -17 8 -20 2 -3 -5 -1
-11 6 -13 7 -3 5 -7 -6 -11 -9 -4 -15 -3 -12 1 3 4 -4 13 -15 20 -19 12 -26 5
-11 -14 4 -5 -1 0 -12 11 -10 11 -23 19 -28 17 -13 -4 -38 24 -30 33 4 4 -3 2
-15 -6 -21 -13 -22 -29 -2 -29 6 0 7 5 3 12 -4 7 -3 8 4 4 13 -8 1 -40 -21
-52 -9 -6 -9 -5 0 8 13 15 8 28 -9 28 -5 0 -6 -6 -2 -12 5 -9 2 -9 -9 1 -9 7
-17 19 -17 25 0 6 5 4 10 -4 8 -12 9 -10 7 7 -2 12 -7 26 -11 30 -4 5 -7 3 -5
-2 9 -37 -33 -52 -68 -24 -16 12 -17 12 -6 -2 10 -12 10 -18 1 -27 -9 -9 -9
-12 0 -12 7 0 12 5 12 10 0 15 47 -18 54 -38 5 -13 3 -13 -9 2 -8 11 -15 16
-15 10 0 -5 -4 -3 -9 5 -7 11 -13 12 -23 3 -11 -8 -16 -7 -26 8 -7 12 -8 20
-1 24 5 2 5 4 -2 2 -6 -1 -10 -6 -9 -11 2 -14 -33 -24 -47 -13 -8 7 -10 3 -6
-11 4 -16 9 -18 22 -11 10 5 23 5 32 -1 12 -8 12 -10 -1 -8 -21 3 -51 -11 -45
-22 3 -4 -5 -13 -17 -19 -19 -9 -21 -9 -8 2 21 18 23 37 5 44 -8 3 -12 10 -9
16 3 5 -3 4 -15 -3 -14 -9 -17 -16 -9 -20 7 -4 16 -5 21 -2 5 3 4 -4 -2 -16
-7 -11 -14 -21 -17 -21 -3 0 -3 4 1 9 3 6 -5 15 -17 22 -21 11 -22 11 -8 -5
13 -16 12 -20 -4 -31 -10 -8 -15 -18 -11 -24 3 -7 0 -8 -9 -5 -9 3 -13 11 -9
17 3 6 1 7 -5 3 -13 -8 -5 -36 12 -36 7 0 6 -4 -2 -9 -8 -4 -14 -12 -15 -17
-1 -5 -6 -8 -10 -6 -4 1 -7 -3 -6 -10 4 -31 -2 -68 -10 -68 -5 0 -8 8 -6 18 1
9 0 11 -2 4 -3 -7 -10 -9 -16 -5 -7 3 -4 -3 7 -15 10 -12 23 -19 28 -16 6 4 5
-3 -1 -15 -14 -25 -26 -28 -17 -5 5 13 4 14 -7 6 -8 -7 -16 -11 -18 -9 -2 1 1
-3 8 -9 7 -6 9 -14 5 -18 -4 -4 -1 -6 7 -4 7 2 16 -3 19 -11 3 -9 0 -11 -9 -6
-7 5 -2 -6 11 -24 l23 -33 -24 6 -24 6 23 -12 c13 -6 21 -17 18 -25 -3 -8 -1
-11 4 -8 6 3 10 2 10 -4 0 -5 -8 -12 -18 -14 -15 -4 -15 -5 2 -6 16 -1 16 -3
6 -17 -11 -12 -11 -15 0 -12 7 2 15 -3 18 -11 2 -8 0 -11 -5 -8 -11 7 -11 -32
0 -50 4 -6 1 -14 -5 -17 -7 -3 -2 -3 11 0 18 5 22 3 15 -7 -14 -22 -13 -37 1
-43 9 -3 12 0 8 10 -5 14 -3 14 15 3 13 -8 17 -16 10 -20 -6 -4 -1 -10 12 -14
18 -6 20 -9 9 -16 -8 -5 -9 -9 -4 -9 16 1 45 26 38 33 -3 4 -1 7 5 7 17 0 15
-15 -3 -30 -8 -7 -15 -17 -15 -22 0 -5 7 -2 16 6 8 9 25 14 37 12 12 -2 28 2
36 8 12 9 13 8 6 -4 -17 -28 -23 -69 -10 -67 5 1 9 9 7 17 -2 13 -1 13 7 1 12
-19 2 -44 -15 -37 -8 3 -14 1 -14 -3 0 -13 28 -22 35 -11 4 6 11 10 18 10 6 0
2 -6 -8 -14 -11 -8 -24 -13 -30 -12 -5 2 -7 1 -2 -1 4 -3 4 -9 1 -15 -4 -6 1
-6 13 1 11 6 23 7 27 4 3 -3 6 -1 6 5 0 7 5 12 10 12 6 0 5 -8 -2 -20 -7 -11
-16 -20 -21 -20 -4 0 -5 5 -1 12 4 7 3 8 -5 4 -15 -10 -3 -29 15 -22 7 3 16 1
19 -4 3 -4 -1 -10 -7 -13 -10 -4 -10 -7 0 -18 11 -12 13 -12 10 1 -2 8 4 15
12 15 8 0 15 -5 15 -12 0 -6 2 -13 5 -15 3 -1 4 -1 3 1 -4 6 30 30 41 31 6 0
5 -5 -2 -12 -7 -7 -12 -17 -12 -23 0 -5 7 -1 15 9 8 10 12 23 9 27 -3 5 1 9 8
9 9 0 9 3 -2 10 -20 13 -31 12 -27 -1 1 -6 -8 -13 -21 -15 -14 -2 -21 0 -17 6
3 5 0 7 -8 4 -18 -6 -32 12 -17 21 6 4 17 1 25 -5 10 -8 19 -9 28 -3 19 16 43
12 56 -10 8 -11 8 -16 2 -12 -6 3 -11 2 -11 -4 0 -5 -3 -17 -7 -27 -5 -13 -1
-12 16 5 13 13 26 19 30 14 3 -6 16 -9 28 -8 12 1 20 -2 17 -7 -4 -5 -11 -8
-18 -5 -6 2 -19 -5 -28 -15 -10 -10 -14 -18 -9 -18 6 0 13 5 16 10 3 6 15 10
26 10 11 0 17 -5 14 -10 -4 -6 -1 -9 7 -8 7 2 12 -2 11 -9 -1 -6 5 -10 15 -9
9 2 28 -4 42 -12 22 -13 23 -13 7 1 -10 8 -15 17 -10 20 10 6 45 -18 38 -25
-3 -3 7 -4 22 -3 16 1 39 -5 53 -13 24 -13 24 -13 5 2 -11 9 -19 19 -17 21 7
13 0 16 -12 6 -11 -9 -15 -9 -19 1 -4 10 -6 10 -6 0 -1 -10 -9 -8 -30 7 -15
11 -31 18 -35 14 -3 -3 -6 0 -6 7 0 9 -5 7 -16 -6 -13 -15 -15 -16 -10 -2 3
11 1 15 -8 12 -18 -7 -27 8 -15 26 5 8 9 11 9 7 0 -4 8 -3 19 2 13 8 23 6 37
-5 18 -15 18 -15 -1 -5 -14 6 -28 5 -45 -5 l-25 -14 25 4 c14 2 33 -1 42 -5
12 -7 20 -4 27 8 6 10 11 13 11 6 0 -6 -5 -15 -11 -19 -8 -4 -7 -9 2 -15 21
-13 29 -11 23 8 -5 17 -5 17 6 1 6 -10 16 -18 22 -18 9 0 9 3 0 12 -7 7 -12
17 -12 22 0 6 7 0 16 -13 11 -15 23 -21 35 -18 14 4 19 0 19 -13 0 -10 3 -20
8 -22 7 -3 62 -103 62 -113 0 -3 -5 -5 -11 -5 -6 0 -30 -14 -55 -31 -56 -38
-86 -96 -87 -166 -1 -51 -6 -63 -11 -27 -3 19 -41 30 -51 14 -4 -6 -11 -7 -17
-4 -6 4 -8 -1 -3 -15 3 -11 3 -21 -2 -21 -5 0 -9 -8 -9 -18 0 -10 6 -19 12
-19 7 0 10 6 7 14 -3 7 0 13 6 13 10 0 15 -14 12 -34 -1 -5 5 -4 13 4 18 14
22 25 6 15 -6 -3 -10 -1 -10 4 0 6 9 11 21 11 13 0 18 -4 13 -12 -6 -10 -5
-10 7 -1 10 8 19 9 25 3 14 -14 56 -22 49 -9 -4 5 -11 7 -16 3 -6 -3 -5 3 3
15 7 12 17 21 22 21 4 0 3 -6 -3 -14 -16 -19 13 -30 31 -12 11 11 16 11 26 -1
8 -8 9 -13 2 -13 -6 0 -8 -5 -4 -11 4 -7 9 -7 13 -2 3 6 16 9 28 8 12 -1 20 2
18 6 -3 4 2 10 11 13 23 9 34 7 34 -4 0 -5 -7 -7 -15 -4 -8 4 -15 1 -15 -6 0
-6 4 -9 9 -6 5 4 12 0 14 -6 4 -10 6 -10 6 0 1 7 6 10 13 6 7 -5 9 -2 4 7 -4
8 0 5 8 -5 9 -11 16 -15 16 -9 0 12 18 12 38 0 12 -8 16 -2 13 18 -1 6 6 1 14
-9 10 -13 15 -15 15 -6 0 7 3 11 6 8 3 -4 19 -2 35 2 18 6 31 5 35 -2 4 -6 2
-8 -4 -4 -6 3 -13 2 -16 -3 -4 -5 2 -8 11 -7 10 2 18 8 18 14 0 20 14 24 34
10 12 -8 18 -18 13 -23 -4 -5 0 -4 8 1 8 5 23 7 34 5 11 -1 16 2 12 8 -4 7 -1
8 8 5 9 -3 13 -10 10 -16 -3 -5 3 -4 14 3 11 7 18 19 15 28 -4 13 -3 14 5 2 6
-8 18 -16 28 -17 9 -2 20 -8 24 -14 6 -9 9 -9 13 1 4 10 6 10 6 2 1 -9 8 -10
25 -3 13 5 26 7 29 4 2 -3 13 -6 24 -8 14 -3 20 1 19 12 0 9 5 16 12 14 6 -1
12 3 12 10 0 6 6 3 14 -7 16 -22 73 -34 60 -13 -4 7 2 5 13 -5 15 -13 23 -15
28 -7 4 6 4 14 1 17 -3 4 -6 0 -6 -8 0 -11 -2 -11 -10 1 -5 8 -10 20 -10 25 0
6 5 3 10 -5 5 -8 10 -11 10 -6 0 5 7 3 15 -4 8 -7 12 -17 9 -22 -4 -6 3 -5 14
1 14 8 23 8 27 1 5 -8 11 -8 19 -1 9 7 17 7 26 -2 10 -9 11 -9 6 1 -6 9 2 12
31 9 32 -2 40 1 50 23 l12 25 -2 -24 c-2 -21 2 -24 36 -25 33 -1 36 0 21 11
-12 9 -23 9 -38 2 -20 -10 -20 -9 -2 5 13 11 24 12 37 6 24 -14 42 -12 33 2
-4 6 -3 8 3 5 6 -4 13 0 17 8 6 18 2 19 -27 4 -20 -9 -20 -9 -5 4 10 8 14 18
10 22 -4 4 3 3 15 -4 20 -10 21 -15 11 -36 -6 -14 -15 -25 -20 -25 -5 0 -6 -5
-2 -11 4 -7 14 1 27 20 21 34 36 36 18 3 -10 -18 -9 -19 13 -9 20 10 22 15 13
26 -10 12 -9 13 2 6 11 -6 13 -4 8 8 -3 9 -2 19 3 22 6 3 1 16 -10 27 -11 12
-23 18 -27 15 -3 -4 -1 -7 6 -7 8 0 11 -6 7 -16 -3 -8 -2 -12 4 -9 6 4 7 -1 3
-11 -4 -11 -8 -13 -11 -6 -2 7 -9 9 -15 5 -7 -4 -6 1 2 10 9 11 10 17 2 18 -6
1 -17 2 -23 3 -7 1 -16 -3 -20 -8 -4 -6 -6 3 -6 19 2 63 -47 126 -129 169
l-32 16 26 44 c15 25 31 42 37 39 5 -3 6 -1 2 5 -4 7 -4 18 1 25 4 6 8 14 8
17 1 11 24 44 25 35 0 -6 -6 -17 -12 -24 -11 -11 -9 -12 11 -6 13 4 21 3 18
-2 -3 -5 -1 -15 5 -23 8 -12 9 -12 4 2 -3 11 2 19 13 23 20 6 24 35 5 35 -7 0
-15 4 -18 8 -6 9 36 8 51 -1 7 -4 14 -3 18 3 3 5 1 10 -4 10 -6 0 -11 5 -11
12 0 6 11 1 25 -12 13 -12 22 -27 18 -33 -3 -6 -1 -7 5 -3 7 4 12 2 12 -5 0
-7 3 -9 6 -6 4 4 -1 18 -10 33 -10 14 -15 28 -12 32 3 3 6 -1 7 -9 0 -8 4 -6
9 6 6 14 9 15 10 5 3 -31 9 -52 16 -58 4 -4 4 1 1 11 -5 14 -2 20 13 24 11 3
20 10 20 15 0 6 6 8 14 5 8 -3 25 5 38 17 22 23 45 27 78 14 42 -17 56 -15 55
6 0 12 -4 27 -8 34 -6 8 -4 12 5 10 7 -2 12 5 12 15 -2 14 1 15 12 6 11 -9 14
-8 14 4 0 8 -3 17 -7 20 -5 2 -3 2 4 1 16 -4 27 13 11 18 -7 3 -5 7 6 11 10 4
15 3 11 -3 -3 -6 1 -10 9 -10 8 0 18 5 22 12 4 7 3 8 -4 4 -7 -4 -12 -1 -12 9
0 9 -4 13 -10 10 -6 -3 -10 -3 -10 2 0 4 16 18 36 31 19 12 32 27 29 32 -3 5
0 12 6 16 8 4 9 3 5 -4 -4 -7 -1 -12 8 -12 22 0 29 17 10 24 -9 4 -14 9 -11
13 4 3 13 0 22 -7 13 -11 15 -10 12 6 -1 11 -7 26 -12 34 -8 13 -7 13 10 0 17
-14 18 -13 12 2 -3 10 -1 20 5 24 7 5 8 2 3 -6 -5 -9 -4 -11 4 -6 19 12 2 27
-18 17 -13 -7 -18 -6 -18 4 0 18 45 14 57 -5 6 -9 10 -10 10 -3 0 6 -4 14 -9
17 -5 3 -7 16 -4 27 4 14 0 25 -10 31 -9 5 -21 18 -27 28 -8 16 -8 18 5 14 9
-4 19 3 26 19 6 14 18 28 26 31 8 4 11 1 7 -5 -4 -8 0 -7 15 0 21 12 28 22 14
20 -22 -4 -31 3 -29 19 2 9 -2 21 -8 25 -7 6 -6 7 4 4 8 -2 15 -10 15 -17 0
-7 7 -15 15 -17 12 -4 12 -3 1 5 -9 7 -10 12 -2 16 6 4 11 13 11 19 0 8 -3 8
-9 -1 -6 -10 -10 -9 -14 7 -3 12 0 24 5 28 7 4 8 1 3 -7 -5 -9 -4 -11 3 -6 21
13 13 28 -10 20 -23 -6 -23 -6 2 21 l25 28 -30 -19 -30 -18 20 24 c11 13 14
20 8 16 -8 -4 -13 -1 -13 9 0 9 4 14 9 10 5 -3 12 -1 15 4 4 5 -2 8 -11 6 -31
-4 -37 7 -12 22 l24 14 -25 -7 c-23 -6 -24 -6 -10 11 14 17 14 18 -10 5 -14
-7 -28 -18 -32 -24 -5 -7 -8 -7 -8 2 0 8 -5 10 -12 6 -14 -8 9 25 27 39 6 5
-1 5 -14 2 -14 -5 -21 -3 -17 3 3 5 -1 15 -9 22 -8 7 -15 9 -15 5 0 -5 -8 -1
-18 8 -18 16 -50 8 -39 -10 3 -5 2 -15 -3 -23 -8 -13 -12 -11 -25 8 -15 21
-53 33 -40 12 3 -5 1 -10 -4 -10 -15 0 -14 10 3 29 11 12 12 21 5 31 -9 12
-10 12 -5 -2 6 -20 -9 -25 -18 -5 -3 6 -4 3 -3 -8 1 -12 -3 -19 -12 -17 -8 2
-11 -3 -8 -12 4 -9 2 -18 -4 -21 -5 -4 -9 -3 -8 2 3 19 -2 34 -10 29 -11 -7
-23 22 -15 35 3 5 10 9 16 9 7 0 6 -6 -2 -15 -8 -9 -8 -15 -2 -15 6 0 12 3 15
8 2 4 3 2 1 -4 -1 -6 4 -11 12 -11 12 0 12 3 1 21 -8 11 -18 21 -24 23 -14 5
-45 -26 -37 -38 3 -5 2 -9 -3 -8 -4 1 -10 0 -13 -1 -19 -7 -39 -7 -34 1 3 5 0
9 -6 9 -6 0 -8 5 -5 10 3 6 1 10 -4 10 -6 0 -11 -4 -11 -9 0 -5 -13 -8 -30 -7
-25 1 -29 4 -24 21 4 17 4 18 -6 3 -6 -9 -19 -15 -29 -13 -22 4 -22 -22 0 -36
23 -14 1 -10 -30 6 -26 13 -30 13 -46 -5 -10 -11 -21 -17 -26 -15 -4 3 -10 1
-13 -4 -9 -13 19 -7 38 8 9 7 16 9 16 5 0 -5 -9 -15 -21 -22 -11 -7 -18 -19
-15 -27 3 -9 0 -12 -9 -8 -8 3 -13 9 -10 13 3 5 0 12 -6 15 -5 4 -8 13 -5 21
3 8 1 14 -4 14 -6 0 -9 3 -8 8 1 8 -6 29 -28 79 -8 17 -14 36 -14 42 0 6 -4
11 -9 11 -5 0 -13 9 -16 20 -14 45 -201 210 -228 202 -5 -1 -6 2 -2 8 5 8 11
7 21 -1 13 -10 14 -8 10 13 -5 32 -45 108 -46 89 0 -12 -3 -12 -12 -3 -8 8
-15 8 -24 1 -9 -8 -11 -5 -7 12 4 13 2 20 -4 16 -5 -3 -10 0 -10 7 0 7 5 13
11 13 171 5 306 48 306 98 0 35 -66 61 -205 80 -53 8 -391 15 -398 9z m173
-40 c74 -1 176 -10 270 -24 36 -5 71 -10 78 -10 23 0 12 -30 -15 -41 -64 -24
-214 -42 -248 -29 -13 5 -28 3 -39 -6 -11 -7 -24 -10 -30 -6 -17 10 -32 11
-71 2 -37 -8 -44 -4 -21 14 8 6 17 21 21 34 5 18 2 22 -13 22 -11 0 -22 5 -24
11 -2 6 -15 12 -29 12 -15 0 -26 5 -26 13 0 9 8 12 22 10 12 -2 28 0 36 4 7 5
16 6 19 2 3 -4 34 -7 70 -8z m-168 -1 c-6 -3 -10 -8 -7 -13 3 -5 -3 -7 -12 -6
-22 4 -83 -32 -83 -49 0 -26 -24 -33 -78 -24 -60 11 -146 47 -119 50 21 2 36
6 40 9 1 1 11 4 22 6 11 1 31 5 45 8 14 3 52 9 85 12 33 4 61 7 62 8 1 0 14 2
30 2 15 1 22 -1 15 -3z m13 -54 c-4 -5 -12 -9 -18 -8 -9 0 -8 2 1 6 6 2 9 10
6 15 -4 7 -2 8 5 4 6 -4 9 -12 6 -17z m62 -18 c0 -11 -5 -17 -9 -15 -5 3 -6 9
-3 14 3 4 -1 11 -7 13 -8 4 -7 6 4 6 11 1 16 -6 15 -18z m-42 -29 c-3 -3 -11
0 -18 7 -9 10 -8 11 6 5 10 -3 15 -9 12 -12z m-29 -57 c-11 -8 -25 -15 -30
-15 -6 1 0 7 14 15 32 19 40 18 16 0z m91 8 c-4 -3 -1 -13 6 -22 11 -14 10
-14 -5 -2 -16 12 -16 31 -1 31 4 0 3 -3 0 -7z m35 -25 c-8 -8 -9 -4 -5 13 4
13 8 18 11 10 2 -7 -1 -18 -6 -23z m125 15 c2 -6 -1 -14 -6 -18 -7 -4 -8 0 -4
11 4 11 3 15 -5 10 -6 -3 -13 -2 -16 3 -4 5 2 8 11 7 9 -2 19 -8 20 -13z
m-182 -13 c3 -5 1 -10 -4 -10 -6 0 -11 5 -11 10 0 6 2 10 4 10 3 0 8 -4 11
-10z m82 -21 c0 -21 -3 -26 -9 -16 -4 9 -5 22 -2 31 9 23 11 20 11 -15z m60 4
c-9 -8 -47 -11 -47 -4 0 5 11 9 25 9 14 0 24 -2 22 -5z m63 -3 c0 -5 -2 -10
-4 -10 -3 0 -8 5 -11 10 -3 6 -1 10 4 10 6 0 11 -4 11 -10z m-49 -27 c-6 -11
-11 -13 -11 -5 0 7 -5 10 -12 6 -7 -4 -8 -3 -4 5 4 6 12 9 17 6 5 -4 9 -1 9 6
0 7 3 10 6 6 3 -3 1 -14 -5 -24z m-163 3 c-10 -7 -15 -16 -11 -19 3 -4 1 -7
-5 -7 -18 0 -14 18 6 29 24 15 30 13 10 -3z m69 -16 c-2 -23 -10 -17 -12 10
-1 10 2 17 6 14 4 -2 7 -13 6 -24z m-184 3 c-3 -7 -8 -13 -12 -13 -4 0 -8 6
-8 13 0 8 6 14 13 14 7 0 10 -6 7 -14z m324 2 c0 -8 -4 -15 -9 -15 -10 0 -11
14 -1 23 9 10 10 9 10 -8z m-306 -18 c-10 -9 -11 -8 -5 6 3 10 9 15 12 12 3
-3 0 -11 -7 -18z m219 15 c0 -5 -7 -9 -15 -9 -8 0 -12 4 -9 9 3 4 9 8 15 8 5
0 9 -4 9 -8z m-270 -22 c0 -5 -4 -10 -10 -10 -5 0 -10 5 -10 10 0 6 5 10 10
10 6 0 10 -4 10 -10z m95 0 c3 -5 1 -10 -4 -10 -6 0 -11 5 -11 10 0 6 2 10 4
10 3 0 8 -4 11 -10z m350 0 c-3 -5 -12 -10 -18 -10 -7 0 -6 4 3 10 19 12 23
12 15 0z m-525 -20 c0 -5 -8 -10 -17 -10 -15 0 -16 2 -3 10 19 12 20 12 20 0z
m50 0 c0 -5 -5 -10 -11 -10 -5 0 -7 5 -4 10 3 6 8 10 11 10 2 0 4 -4 4 -10z
m-25 -39 c-3 -6 -11 -11 -16 -11 -5 0 -4 6 3 14 14 16 24 13 13 -3z m-87 -66
c-3 -3 -9 2 -12 12 -6 14 -5 15 5 6 7 -7 10 -15 7 -18z m1056 -268 c3 3 6 1 6
-5 0 -15 -26 -16 -35 -2 -4 6 -11 7 -17 4 -7 -4 -8 -2 -4 4 5 8 13 9 25 2 10
-5 21 -6 25 -3z m-1614 -9 c0 -11 -12 -10 -30 2 -12 7 -10 9 8 7 12 0 22 -5
22 -9z m114 -15 c4 -10 4 -14 0 -10 -4 4 -14 1 -22 -6 -13 -11 -14 -9 -1 11
17 26 15 26 23 5z m1416 2 c7 -9 8 -15 2 -15 -5 0 -12 7 -16 15 -3 8 -4 15 -2
15 2 0 9 -7 16 -15z m438 -20 c12 0 12 -34 0 -41 -7 -5 -9 -2 -5 8 4 12 -2 18
-21 23 -20 5 -23 8 -11 16 11 7 11 9 -4 9 -10 0 -15 5 -12 11 5 7 14 4 27 -8
11 -10 23 -18 26 -18z m-1671 8 c5 3 9 -3 9 -13 0 -13 -4 -16 -12 -10 -6 6
-15 6 -19 2 -5 -4 -5 -1 -1 6 4 6 2 12 -3 12 -6 0 -11 5 -11 11 0 8 4 8 15 -1
8 -6 18 -9 22 -7z m1456 10 c3 -5 -5 -8 -18 -8 -13 0 -21 3 -18 8 2 4 10 7 18
7 8 0 16 -3 18 -7z m-1808 -23 c-3 -5 -12 -10 -18 -10 -7 0 -6 4 3 10 19 12
23 12 15 0z m311 -16 c1 -9 0 -13 -4 -10 -3 4 -7 14 -8 22 -1 9 0 13 4 10 3
-4 7 -14 8 -22z m1301 11 c0 -8 -4 -12 -9 -9 -5 3 -6 10 -3 15 9 13 12 11 12
-6z m303 5 c0 -5 -5 -10 -11 -10 -5 0 -7 5 -4 10 3 6 8 10 11 10 2 0 4 -4 4
-10z m-350 -14 c0 -3 -4 -8 -10 -11 -5 -3 -10 -1 -10 4 0 6 5 11 10 11 6 0 10
-2 10 -4z m426 -8 c4 -7 4 -10 -1 -6 -4 4 -14 3 -22 -4 -11 -8 -12 -7 -7 6 7
19 20 21 30 4z m101 -35 c-4 -3 -2 -12 5 -20 8 -11 7 -12 -6 -7 -18 7 -22 34
-4 34 6 0 8 -3 5 -7z m-2293 -220 c19 -22 26 -25 38 -15 12 9 14 8 13 -8 -1
-11 -5 -23 -10 -27 -4 -5 -5 -2 -1 5 4 7 2 12 -7 12 -9 0 -14 -11 -14 -30 0
-19 5 -30 14 -30 9 0 11 5 7 13 -4 6 -3 8 1 4 14 -12 14 -36 1 -31 -7 3 -13
-2 -13 -11 0 -10 6 -14 16 -10 11 3 10 1 -3 -10 -23 -18 -36 -11 -31 16 3 12
0 31 -6 41 -8 15 -8 19 0 14 6 -4 11 -3 11 2 0 6 -7 13 -16 16 -14 5 -14 9 -3
23 12 15 12 16 -4 10 -11 -4 -16 -3 -12 4 4 5 1 16 -5 24 -23 27 1 15 24 -12z
m2235 -27 c-3 -3 -11 5 -18 17 -13 21 -12 21 5 5 10 -10 16 -20 13 -22z m46
-87 c-4 -5 -14 -9 -23 -8 -15 0 -15 1 1 7 16 7 16 9 -3 25 -11 9 -20 21 -20
26 0 6 11 -1 25 -15 14 -14 23 -30 20 -35z m-2244 -58 c-9 -6 -10 -11 -3 -15
6 -4 8 -14 5 -23 -5 -12 -3 -14 7 -8 8 5 11 4 6 -3 -3 -6 -2 -13 4 -17 6 -4 8
-10 5 -15 -3 -5 3 -11 14 -15 19 -6 36 -33 26 -43 -3 -3 -5 0 -5 7 0 7 -5 9
-12 5 -7 -4 -8 -3 -4 4 7 11 -32 38 -48 34 -5 -2 -4 4 3 12 10 12 9 17 -7 25
-11 6 -19 17 -18 25 3 19 27 48 35 41 3 -3 -1 -10 -8 -14z m127 -91 c-12 -19
-28 -27 -28 -14 0 6 30 33 38 34 1 0 -3 -9 -10 -20z m1927 11 c3 -5 2 -12 -3
-15 -5 -3 -9 1 -9 9 0 17 3 19 12 6z m-1972 -18 c-3 -7 -6 -13 -8 -13 -2 0 -5
6 -8 13 -3 8 1 14 8 14 7 0 11 -6 8 -14z m2033 -2 c1 -6 0 -7 -2 -2 -3 6 -12
7 -20 4 -8 -3 -14 -1 -14 5 0 14 33 8 36 -7z m-1966 -31 c-18 -12 -30 -13 -30
-2 0 4 10 9 22 9 18 2 20 0 8 -7z m1935 -28 c-3 -3 -11 0 -18 7 -9 10 -8 11 6
5 10 -3 15 -9 12 -12z m-20 -12 c3 -5 1 -10 -4 -10 -6 0 -11 5 -11 10 0 6 2
10 4 10 3 0 8 -4 11 -10z m-67 -92 c-2 -8 6 -12 22 -11 22 2 23 1 7 -8 -20
-12 -52 5 -41 22 8 13 14 11 12 -3z m-1733 -16 c-3 -3 -11 0 -18 7 -9 10 -8
11 6 5 10 -3 15 -9 12 -12z m1515 -26 c0 -3 -4 -8 -10 -11 -5 -3 -10 -1 -10 4
0 6 5 11 10 11 6 0 10 -2 10 -4z m-1180 -66 c0 -5 -2 -10 -4 -10 -3 0 -8 5
-11 10 -3 6 -1 10 4 10 6 0 11 -4 11 -10z m1092 -4 c7 4 8 2 4 -5 -9 -13 -26
-5 -25 12 0 9 2 8 6 -1 2 -6 10 -9 15 -6z m-518 -377 c3 -3 -4 -5 -14 -6 -11
-1 -22 2 -24 6 -5 8 30 8 38 0z m-680 -24 c-4 -8 -8 -15 -10 -15 -2 0 -4 7 -4
15 0 8 4 15 10 15 5 0 7 -7 4 -15z m605 -7 c-12 -23 -21 -24 -12 -1 5 12 3 14
-7 8 -8 -5 -11 -4 -7 2 3 5 13 10 21 10 11 0 13 -5 5 -19z m-421 -13 c-3 -3
-9 2 -12 12 -6 14 -5 15 5 6 7 -7 10 -15 7 -18z m56 10 c-8 -19 -44 -40 -44
-25 0 5 6 10 14 10 8 0 16 7 20 15 3 8 8 15 10 15 3 0 3 -7 0 -15z m143 0 c0
-8 -4 -15 -9 -15 -10 0 -11 14 -1 23 9 10 10 9 10 -8z m140 0 c0 -8 -4 -12 -9
-9 -5 3 -6 10 -3 15 9 13 12 11 12 -6z m136 0 c-3 -9 -8 -14 -10 -11 -3 3 -2
9 2 15 9 16 15 13 8 -4z m18 -8 c-10 -9 -11 -8 -5 6 3 10 9 15 12 12 3 -3 0
-11 -7 -18z m184 14 c3 -5 2 -12 -3 -15 -5 -3 -9 1 -9 9 0 17 3 19 12 6z
m-775 -16 c-7 -9 -15 -13 -19 -10 -3 3 1 10 9 15 21 14 24 12 10 -5z m51 -8
c-10 -9 -11 -8 -5 6 3 10 9 15 12 12 3 -3 0 -11 -7 -18z m169 13 c0 -5 -4 -10
-10 -10 -5 0 -10 5 -10 10 0 6 5 10 10 10 6 0 10 -4 10 -10z m151 -8 c-7 -2
-18 1 -23 6 -8 8 -4 9 13 5 13 -4 18 -8 10 -11z m289 -17 c0 -5 -5 -3 -10 5
-5 8 -10 20 -10 25 0 6 5 3 10 -5 5 -8 10 -19 10 -25z m25 17 c-3 -3 -11 0
-18 7 -9 10 -8 11 6 5 10 -3 15 -9 12 -12z m35 14 c0 -3 -4 -8 -10 -11 -5 -3
-10 -1 -10 4 0 6 5 11 10 11 6 0 10 -2 10 -4z m100 -6 c0 -5 -2 -10 -4 -10 -3
0 -8 5 -11 10 -3 6 -1 10 4 10 6 0 11 -4 11 -10z m60 0 c0 -5 -2 -10 -4 -10
-3 0 -8 5 -11 10 -3 6 -1 10 4 10 6 0 11 -4 11 -10z m97 -5 c0 -8 -4 -12 -9
-9 -4 3 -8 9 -8 15 0 5 4 9 8 9 5 0 9 -7 9 -15z m-343 -10 c3 -8 1 -15 -4 -15
-6 0 -10 7 -10 15 0 8 2 15 4 15 2 0 6 -7 10 -15z m303 -1 c9 17 11 17 16 2 4
-10 3 -14 -2 -11 -5 3 -12 1 -16 -5 -9 -14 -25 -2 -24 18 0 14 2 13 8 -3 7
-18 8 -18 18 -1z m81 7 c11 -7 10 -9 -3 -14 -9 -4 -14 -3 -10 2 3 5 -1 12 -7
14 -7 3 -8 6 -3 6 6 0 16 -3 23 -8z m-744 -18 c5 -12 3 -13 -6 -6 -7 6 -21 9
-31 8 -9 -2 -15 0 -13 4 9 13 45 9 50 -6z m66 13 c0 -2 -9 -6 -20 -9 -11 -3
-18 -1 -14 4 5 9 34 13 34 5z m140 -4 c0 -5 -7 -9 -15 -9 -8 0 -12 4 -9 9 3 4
9 8 15 8 5 0 9 -4 9 -8z m320 0 c0 -5 -7 -9 -15 -9 -8 0 -12 4 -9 9 3 4 9 8
15 8 5 0 9 -4 9 -8z"/>
<path d="M113 995 c0 -8 4 -12 9 -9 5 3 6 10 3 15 -9 13 -12 11 -12 -6z"/>
<path d="M2075 1581 c-3 -5 -2 -12 3 -15 5 -3 9 1 9 9 0 17 -3 19 -12 6z"/>
<path d="M430 1573 c0 -6 5 -15 10 -18 6 -4 7 -12 4 -18 -4 -7 -4 -9 1 -5 4 4
14 3 22 -3 7 -6 13 -8 13 -5 0 4 9 2 19 -4 14 -7 22 -7 26 1 5 7 13 5 24 -5
10 -9 22 -12 30 -7 9 6 10 11 2 15 -6 4 -11 1 -11 -6 -1 -9 -4 -8 -13 4 -9 11
-25 15 -50 14 -36 -3 -49 7 -24 18 6 3 2 3 -10 0 -14 -3 -25 1 -32 13 -6 10
-11 13 -11 6z"/>
<path d="M1990 1560 c8 -5 20 -10 25 -10 6 0 3 5 -5 10 -8 5 -19 10 -25 10 -5
0 -3 -5 5 -10z"/>
<path d="M2035 1560 c-4 -6 1 -7 12 -3 16 6 16 5 5 -10 -8 -9 -10 -22 -6 -28
5 -9 11 -7 20 6 10 14 11 22 3 32 -14 15 -26 17 -34 3z m28 -25 c-3 -9 -8 -14
-10 -11 -3 3 -2 9 2 15 9 16 15 13 8 -4z"/>
<path d="M1970 1542 c0 -5 7 -9 15 -9 8 0 12 4 9 9 -3 4 -9 8 -15 8 -5 0 -9
-4 -9 -8z"/>
<path d="M2222 1535 c15 -16 20 -17 30 -6 11 11 10 13 0 7 -7 -4 -21 -2 -30 5
-15 12 -15 11 0 -6z"/>
<path d="M1815 1510 c-3 -5 -1 -10 4 -10 6 0 11 5 11 10 0 6 -2 10 -4 10 -3 0
-8 -4 -11 -10z"/>
<path d="M2210 1513 c0 -13 29 -38 35 -31 3 3 -4 13 -15 23 -11 10 -20 13 -20
8z"/>
<path d="M101 1444 c0 -11 3 -14 6 -6 3 7 2 16 -1 19 -3 4 -6 -2 -5 -13z"/>
<path d="M35 1370 c-3 -5 -1 -10 4 -10 6 0 11 5 11 10 0 6 -2 10 -4 10 -3 0
-8 -4 -11 -10z"/>
<path d="M60 1375 c0 -2 6 -8 13 -14 10 -8 14 -7 14 2 0 8 -6 14 -14 14 -7 0
-13 -1 -13 -2z"/>
<path d="M46 1332 c-3 -5 1 -9 9 -9 8 0 12 4 9 9 -3 4 -7 8 -9 8 -2 0 -6 -4
-9 -8z"/>
<path d="M2377 1155 c-9 -13 -13 -26 -8 -29 5 -3 11 4 14 15 4 14 11 20 21 16
10 -4 13 -1 9 9 -7 20 -15 17 -36 -11z"/>
<path d="M2428 1173 c7 -3 16 -2 19 1 4 3 -2 6 -13 5 -11 0 -14 -3 -6 -6z"/>
<path d="M2390 1130 c0 -5 5 -10 10 -10 6 0 10 5 10 10 0 6 -4 10 -10 10 -5 0
-10 -4 -10 -10z"/>
<path d="M2363 1001 c-7 -11 -8 -22 -2 -28 5 -5 -14 -24 -51 -47 -33 -21 -57
-42 -54 -47 8 -13 69 -3 69 11 0 7 8 14 18 16 22 3 36 14 19 14 -7 0 -12 7
-12 16 0 8 5 12 10 9 10 -6 13 3 13 38 0 9 4 17 8 17 5 0 9 5 9 10 0 16 -14
12 -27 -9z m-17 -83 c4 -7 4 -10 -1 -6 -9 9 -37 -11 -31 -21 3 -4 -5 -7 -16
-7 -18 0 -17 3 8 23 34 27 31 26 40 11z"/>
<path d="M2395 989 c-4 -6 -5 -12 -2 -15 2 -3 7 2 10 11 7 17 1 20 -8 4z"/>
<path d="M227 853 c-4 -3 -1 -13 6 -21 10 -13 9 -15 -6 -9 -15 6 -16 4 -7 -13
6 -11 15 -20 20 -20 6 0 10 -10 10 -22 0 -32 9 -17 13 23 2 20 7 41 11 47 3 6
2 13 -4 17 -9 6 -14 -8 -11 -28 1 -5 -3 -6 -8 -2 -6 3 -8 12 -4 20 5 15 -8 21
-20 8z m26 -47 c4 -10 1 -13 -8 -9 -8 3 -12 9 -9 14 7 12 11 11 17 -5z"/>
<path d="M2227 823 c-12 -12 -7 -23 11 -23 13 0 14 2 3 9 -11 7 -11 9 0 14 8
3 9 6 3 6 -6 1 -14 -2 -17 -6z"/>
<path d="M2195 776 c-18 -13 -18 -14 2 -25 19 -9 20 -8 16 10 -5 18 -3 20 18
14 18 -5 21 -4 9 4 -19 14 -23 14 -45 -3z"/>
<path d="M2046 705 c-22 -26 -23 -38 -1 -41 12 -2 14 1 5 11 -7 8 -7 15 -1 19
5 4 14 -1 19 -10 6 -11 11 -13 16 -5 4 6 3 11 -2 11 -5 0 -9 6 -9 14 0 11 4
12 18 3 10 -6 15 -15 12 -21 -3 -5 -1 -6 5 -3 5 4 9 15 8 24 -4 26 -48 25 -70
-2z"/>
<path d="M1986 674 c-11 -8 -16 -14 -10 -14 13 0 39 18 34 24 -3 2 -14 -2 -24
-10z"/>
<path d="M465 670 c-3 -6 1 -7 9 -4 18 7 21 14 7 14 -6 0 -13 -4 -16 -10z"/>
<path d="M1853 655 c0 -8 4 -15 9 -15 5 0 6 -5 2 -12 -4 -7 -3 -8 4 -4 9 5 9
13 2 27 -13 23 -17 24 -17 4z"/>
<path d="M1886 661 c-8 -13 4 -41 17 -41 8 0 8 3 0 11 -6 6 -9 18 -6 25 6 16
-3 19 -11 5z"/>
<path d="M1836 612 c-3 -5 1 -9 9 -9 8 0 12 4 9 9 -3 4 -7 8 -9 8 -2 0 -6 -4
-9 -8z"/>
<path d="M626 297 c3 -8 11 -14 19 -14 20 0 19 4 -5 17 -15 8 -18 8 -14 -3z"/>
<path d="M490 291 c0 -6 4 -13 10 -16 6 -3 7 1 4 9 -7 18 -14 21 -14 7z"/>
<path d="M525 292 c-14 -10 -15 -54 -1 -49 6 2 10 15 8 28 -2 20 1 19 17 -11
19 -34 22 -34 25 0 0 8 7 15 15 15 8 0 16 6 19 13 4 13 -31 12 -44 -1 -4 -4
-12 -3 -18 3 -7 5 -16 6 -21 2z"/>
<path d="M1946 288 c3 -4 9 -8 15 -8 5 0 9 4 9 8 0 5 -7 9 -15 9 -8 0 -12 -4
-9 -9z"/>
<path d="M1969 277 c-18 -16 -25 -30 -23 -51 2 -15 6 -31 10 -35 4 -3 4 4 1
17 -3 12 -1 20 3 17 5 -3 11 -1 15 4 3 6 11 8 18 5 7 -2 13 4 14 16 1 11 -2
18 -7 15 -5 -3 -12 0 -16 6 -4 7 -3 9 3 6 5 -3 10 0 10 8 0 8 -1 15 -1 15 -1
-1 -13 -11 -27 -23z m11 -21 c0 -3 -4 -8 -10 -11 -5 -3 -10 -1 -10 4 0 6 5 11
10 11 6 0 10 -2 10 -4z"/>
<path d="M2011 288 c-1 -21 7 -22 29 -7 13 9 13 10 -2 6 -9 -3 -19 -1 -22 6
-2 7 -5 4 -5 -5z"/>
<path d="M2062 291 c2 -20 -4 -30 -15 -25 -14 5 -34 -13 -36 -31 -1 -5 -8 -10
-15 -10 -8 0 -18 -4 -23 -8 -9 -10 16 -27 37 -26 10 0 8 3 -5 9 -11 5 -15 9
-10 10 30 4 47 9 52 14 4 3 12 -2 20 -12 12 -16 13 -16 7 0 -4 13 -1 16 13 13
11 -2 26 1 34 7 11 8 11 9 -3 5 -19 -6 -42 15 -30 28 4 5 1 5 -5 1 -7 -4 -13
-3 -13 3 0 5 8 11 18 13 14 3 13 5 -5 10 -12 3 -22 3 -21 -1z m19 -48 c9 -9 7
-11 -7 -9 -11 2 -27 -1 -37 -6 -16 -8 -17 -7 -8 10 11 21 34 23 52 5z"/>
<path d="M454 278 c-5 -7 -3 -8 6 -3 13 8 13 7 -7 -42 -4 -11 10 -18 20 -10 2
1 11 -4 20 -11 11 -10 17 -10 22 -1 6 8 10 7 17 -2 7 -10 8 -9 4 6 -6 19 -5
19 7 3 18 -23 29 -12 14 13 -8 13 -15 15 -24 8 -13 -12 -36 -3 -28 11 3 4 -6
15 -20 24 -17 11 -26 13 -31 4z m56 -64 c0 -3 -6 -2 -12 3 -7 4 -16 8 -20 8
-5 0 -8 3 -8 8 0 4 0 12 0 17 0 6 9 1 20 -10 11 -11 20 -23 20 -26z"/>
<path d="M421 262 c-1 -7 -5 -10 -11 -7 -15 9 -12 -1 4 -14 10 -9 17 -7 27 6
8 9 9 14 2 10 -6 -4 -14 -1 -16 5 -4 10 -6 10 -6 0z"/>
<path d="M775 199 c-4 -6 -5 -12 -2 -15 2 -3 7 2 10 11 7 17 1 20 -8 4z"/>
<path d="M1116 195 c4 -8 8 -15 10 -15 2 0 4 7 4 15 0 8 -4 15 -10 15 -5 0 -7
-7 -4 -15z"/>
<path d="M1441 194 c14 -17 32 -19 27 -2 -2 6 -12 12 -22 14 -14 2 -15 0 -5
-12z"/>
<path d="M1255 189 c-3 -4 2 -6 10 -5 21 3 28 13 10 13 -9 0 -18 -4 -20 -8z"/>
</g>
</svg>
